<?xml version="1.0" encoding="UTF-8"?><svg id="Layer_2" xmlns="http://www.w3.org/2000/svg" viewBox="0 0 104.81 179.01"><defs><style>.cls-1{fill:#fffeff;}.cls-2{fill:#eae65e;}.cls-3{fill:#f1f7ff;}.cls-4{fill:#9da7b9;}</style></defs><g id="Layer_1-2"><path class="cls-3" d="m30.38,107.73c-.08-.62.14-1.19.28-1.77.5.19.99.41,1.5.58,4.72,1.58,9.64,1.91,14.54,2.2,3.73.22,7.48.04,11.22.04.41,0,.82.03,1.23-.12.66-.23,1.74-.09,1.63-1.11-.11-.98-1.11-.77-1.85-.77-6.84.04-13.68.21-20.46-.99-2.99-.53-5.97-1.05-8.61-2.69.09-.35.17-.7.26-1.05.73.31,1.44.65,2.18.91.52.18,1.04,0,1.26-.51.24-.55.13-1.06-.5-1.35-.34-.16-.68-.32-1-.5-.43-.23-1-.4-.94-1.02.06-.57.6-.79,1.06-.95.94-.33,1.89-.65,2.86-.87,4.15-.93,8.4-.9,12.62-1.17,5.86-.36,11.68.32,17.49.97,2.05.23,4.11.67,6,1.59.89.43.91.9.06,1.39-.79.46-1.66.77-2.56.96-5.12,1.06-10.32,1.42-15.53,1.49-2.25.03-4.5,0-6.75,0-.48,0-.95.05-.99.68-.04.57.29.84.81.91.57.08,1.15.19,1.73.19,4.49-.05,8.97.19,13.46-.23,3.47-.32,6.93-.67,10.26-1.77.17.96,1.05,1.65,1,2.69-.46.28-.71.66-.75,1.22-.22,3.12.35,5.95,3.15,7.79,2.16,1.42,2.84,3.46,2.84,5.86.01,14.62.02,29.24-.01,43.85,0,1.52-.41,3.03-1.24,4.33-1.14,1.78-2.66,3.18-4.55,4.15-4.12,2.12-8.56,2.98-13.1,3.7-5.71.91-11.35.63-16.98-.26-3.81-.6-7.48-1.67-10.97-3.46-3.05-1.56-5.91-4.5-5.9-8.6.05-14.53.03-29.07-.01-43.6,0-2.29.69-4.11,2.47-5.58,1.05-.87,2.12-1.76,2.8-3,.74-1.36.75-3.3.01-4.15Zm34.74,33.36c0,3.66.01,7.32,0,10.98,0,1.2.04,2.4.24,3.59.09.51.27.96.75,1.03,1.37.2,2.73.07,3.98-.57.51-.26.52-.78.54-1.31.05-1.85-.14-3.69-.09-5.55.2-7.65.08-15.3.08-22.96,0-.61-.17-1.15-.71-1.5-.88-.58-3.64-.24-4.32.55-.12.14-.21.37-.2.55.05,1.29-.31,2.54-.29,3.84.07,3.78.02,7.57.02,11.35Z"/><path class="cls-4" d="m30.38,107.73c.74.85.73,2.79-.01,4.15-.67,1.24-1.75,2.13-2.8,3-1.78,1.47-2.48,3.29-2.47,5.58.05,14.53.07,29.07.01,43.6-.01,4.1,2.84,7.04,5.9,8.6,3.5,1.79,7.16,2.86,10.97,3.46,5.64.89,11.28,1.16,16.98.26,4.54-.72,8.98-1.58,13.1-3.7,1.89-.97,3.41-2.37,4.55-4.15.83-1.3,1.23-2.81,1.24-4.33.03-14.62.02-29.24.01-43.85,0-2.4-.68-4.44-2.84-5.86-2.8-1.85-3.37-4.68-3.15-7.79.04-.56.29-.94.75-1.22.96.03,1.3.58,1.26,1.47-.02.5.02,1-.01,1.5-.12,1.91.65,3.41,2.18,4.48,2.75,1.93,3.88,4.51,3.86,7.89-.09,14.19-.02,28.38-.04,42.57,0,2.19-.15,4.39-1.27,6.37-2.01,2.84-4.75,4.66-7.98,5.89-2.21.84-4.53,1.29-6.75,2.07-5.2,1.12-10.48,1.42-15.77,1.26-2.46-.07-4.92-.51-7.38-.78-1.43-.4-2.86-.8-4.3-1.19-5.03-1.35-9.69-3.27-12.49-8.06-.78-2.09-1.03-4.26-1.02-6.48.02-12.9.02-25.81.02-38.71,0-1.57-.02-3.13.16-4.71.27-2.31,1.23-4.15,3.03-5.51,1.67-1.26,2.93-2.69,3.1-4.87.06-.7.45-1.02,1.16-.94Z"/><path class="cls-3" d="m63.87,177.71c2.22-.78,4.54-1.23,6.75-2.07,3.22-1.23,5.97-3.05,7.98-5.89,3.4.02,6.83-.23,10.19.29,4.59.71,9.32.63,13.74,2.39.45.18,1,.06,1.42.38.39.3.92.56.86,1.13-.06.52-.51.82-.98,1.04-1.78.83-3.7,1.13-5.6,1.51-4.74.96-9.58,1.15-14.37,1.73-1.72.21-3.47.05-5.21.24-4.46.49-8.96.25-13.44.3-.8,0-1.29-.2-1.35-1.06Z"/><path class="cls-3" d="m23.93,168.94c2.8,4.79,7.46,6.72,12.49,8.06,1.44.38,2.87.79,4.3,1.19-.53.44-1.14.58-1.84.58-3.66-.03-7.33.11-10.98-.05-3.34-.15-6.65-.68-9.99-.88-2.03-.12-4.03-.34-6.05-.57-3.29-.37-6.54-.92-9.74-1.75-.92-.24-2.14-.6-2.12-1.62.02-1.12,1.37-1.35,2.28-1.59,5.25-1.38,10.69-1.54,16.01-2.5,1.33-.24,2.74-.06,4.11-.03.7.02,1.22-.17,1.53-.82Z"/><path class="cls-4" d="m71.62,102.78c-3.33,1.1-6.78,1.45-10.26,1.77-4.49.42-8.97.18-13.46.23-.58,0-1.15-.11-1.73-.19-.52-.07-.85-.34-.81-.91.05-.63.52-.68.99-.68,2.25,0,4.5.03,6.75,0,5.22-.07,10.41-.43,15.53-1.49.9-.19,1.77-.5,2.56-.96.85-.49.83-.96-.06-1.39-1.89-.93-3.95-1.37-6-1.59-5.81-.65-11.63-1.33-17.49-.97-4.22.26-8.46.23-12.62,1.17-.97.22-1.92.54-2.86.87-.46.16-1,.37-1.06.95-.07.62.51.79.94,1.02.33.18.66.35,1,.5.62.29.74.8.5,1.35-.23.52-.74.69-1.26.51-.74-.26-1.45-.6-2.18-.91-.84-.8-1.49-1.69-1.17-2.95.44-1.76,1.88-2.37,3.38-2.77,2.44-.65,4.95-.85,7.46-1.12,4.38-.46,8.78-.62,13.16-.6,5.21.03,10.43.37,15.56,1.43,1.42.29,2.84.66,4.06,1.51,1.84,1.28,1.87,3.18.07,4.53-.33.25-.69.46-1.04.69Z"/><path class="cls-4" d="m29.87,103.1c2.64,1.64,5.62,2.16,8.61,2.69,6.78,1.2,13.62,1.02,20.46.99.73,0,1.73-.21,1.85.77.12,1.02-.96.88-1.63,1.11-.41.15-.82.12-1.23.12-3.74,0-7.49.18-11.22-.04-4.9-.28-9.83-.62-14.54-2.2-.51-.17-1-.38-1.5-.58-.46-.35-.92-.7-1.37-1.05-.37-.29-.76-.61-.58-1.12.18-.5.57-.81,1.16-.69Z"/><path class="cls-2" d="m43.7,73.02c-.58-.97-.03-2.16-.48-3.22-.11-.27-.2-.64.06-.81.38-.25.58.18.79.4.42.45.76,1,1.22,1.41,1.56,1.38,3.38,1.87,5.42,1.35.24-.06.53-.2.7,0,.24.28,0,.58-.19.76-2.18,2.14-2.27,4.65-1.4,7.36.11.34.12.69-.27.85-.42.17-.54-.2-.75-.46-1.21-1.51-2.54-2.86-4.61-3.1-.58-.07-1.16-.14-1.73.03-.34.1-.77.4-.95-.06-.13-.34.19-.74.52-.91,1.54-.74,1.28-2.27,1.66-3.61Z"/><path class="cls-2" d="m65.08,39.78c-.1,2.97,0,5.65,3.12,7.14-.68.1-1.39.1-2.02.32-1.58.55-2.88,1.45-3.33,3.21-.1.38-.3.76-.73.7-.34-.05-.47-.44-.49-.78-.02-.37-.03-.75,0-1.12.18-1.73-.44-3.08-1.91-4.04-.29-.19-.55-.44-1.17-.94,3.67.31,5.14-2,6.52-4.48Z"/><path class="cls-2" d="m44.73,15.05c.07-.37.38-.41.65-.48,1.81-.45,2.47-1.81,2.73-3.47.06-.37.06-.87.51-.86.47.02.49.46.56.92.23,1.46,1.02,2.58,2.44,3.18.4.17,1.05.19,1.04.73-.01.6-.63.67-1.13.75-1.14.19-1.64,1.05-2,2.01-.15.39-.22.8-.34,1.2-.08.28-.18.65-.48.67-.46.04-.4-.45-.51-.72-.24-.57-.38-1.2-.67-1.74-.42-.77-.93-1.48-1.95-1.57-.35-.03-.74-.17-.85-.61Z"/><path class="cls-3" d="m48.3,65.29c-.67-.03-1.08-.27-.79-1.01.43-1.12.98-2.19,1.43-3.29,1.21-2.96,3.36-5.28,4.95-7.97.13-.22.29-.48.57-.33.24.13.23.47.09.68-1.43,2.15-2.11,4.66-3.31,6.91-.64,1.19-1.36,2.35-1.65,3.71-.14.66-.47,1.26-1.28,1.31Z"/><path class="cls-3" d="m60.13,23.58c1.32,2.31,2.39,4.73,3.19,7.24.48,1.49.72,3.05,1.14,4.56.16.6.19,1.14-.43,1.34-.63.2-1.01-.26-1.16-.84-.68-2.76-1.35-5.53-1.99-8.3-.3-1.32-.51-2.66-.76-3.99Z"/><path class="cls-3" d="m55.57,0c.02.76-.78,1.49-1.24,2.29-.73,1.25-1.54,2.44-2.13,3.77-.13.3-.32.61-.56.81-.43.36-.75,1.28-1.47.72-.6-.46-.37-1.25,0-1.83.87-1.37,1.83-2.67,2.97-3.82.77-.77,1.71-1.38,2.44-1.95Z"/><path class="cls-1" d="m65.12,141.09c0-3.78.04-7.57-.02-11.35-.02-1.3.34-2.55.29-3.84,0-.18.08-.41.2-.55.68-.79,3.45-1.13,4.32-.55.54.36.71.89.71,1.5,0,7.65.11,15.31-.08,22.96-.05,1.86.14,3.7.09,5.55-.01.52-.03,1.05-.54,1.31-1.25.65-2.61.78-3.98.57-.48-.07-.66-.52-.75-1.03-.2-1.19-.25-2.38-.24-3.59.02-3.66,0-7.32,0-10.98Z"/></g></svg>