<svg width="468" height="468" viewBox="0 0 468 468" fill="none" xmlns="http://www.w3.org/2000/svg">
<path d="M351.604 324.031L435.123 407.53L407.53 435.123L324.031 351.604C292.963 376.51 254.319 390.057 214.5 390C117.624 390 39 311.376 39 214.5C39 117.624 117.624 39 214.5 39C311.376 39 390 117.624 390 214.5C390.057 254.319 376.51 292.963 351.604 324.031ZM312.487 309.562C337.235 284.113 351.056 249.998 351 214.5C351 139.074 289.906 78 214.5 78C139.074 78 78 139.074 78 214.5C78 289.906 139.074 351 214.5 351C249.998 351.056 284.113 337.235 309.562 312.487L312.487 309.562Z" fill="#6B7280"/>
</svg>
