<svg width="273" height="240" viewBox="0 0 273 240" fill="none" xmlns="http://www.w3.org/2000/svg">
<path d="M247.47 27.2639L246.246 25.9918C222.798 2.07545 186.097 -0.31618 159.795 18.4607L177.279 71.0765L128.344 103.643C128.344 103.643 146.346 158.777 143.534 159.5C140.723 160.223 79.4096 95.5017 79.4096 95.5017L128.344 62.9348L113.766 18.9186C87.4124 -0.316179 50.3546 1.92279 26.7538 26.0426L25.5305 27.2639C0.706322 52.605 -0.364125 92.9574 21.8094 119.978L129.924 231.214C133.544 234.929 139.405 234.929 143.025 231.214L251.191 119.927C273.364 92.9574 272.294 52.605 247.47 27.2639Z" stroke="#6B7280" stroke-width="12"/>
</svg>
