<?xml version="1.0" encoding="utf-8"?>
<!-- Generator: Adobe Illustrator 25.0.0, SVG Export Plug-In . SVG Version: 6.00 Build 0)  -->
<svg version="1.1" id="Layer_1" xmlns="http://www.w3.org/2000/svg" xmlns:xlink="http://www.w3.org/1999/xlink" x="0px" y="0px"
	 viewBox="0 0 1000 1000" style="enable-background:new 0 0 1000 1000;" xml:space="preserve">
<style type="text/css">
	.st0{fill:#2653EB;}
</style>
<path class="st0" d="M718.8,454.2l-69.7-120.7c-16.4-28.4-46.6-45.8-79.4-45.8H430.3c-32.8,0-63,17.5-79.4,45.8l-69.7,120.7
	c-16.4,28.4-16.4,63.3,0,91.7l69.7,120.7c16.4,28.4,46.6,45.8,79.4,45.8h139.4c32.8,0,63-17.5,79.4-45.8l69.7-120.7
	C735.2,517.5,735.2,482.5,718.8,454.2z M599.5,560.2c-0.2,0.4-0.4,0.8-0.5,1.2c-3,9.1-13.4,12.5-21.1,6.6
	c-8.1-6.2-16.7-11.5-26.1-15.5c-12.7-5.4-26-8.6-39.7-9.8c-19.6-1.7-38.7,0.6-57.3,7.2c-11.5,4.1-22.2,9.9-31.8,17.5
	c-5.1,4.1-10.8,4.7-15.9,1.8c-8.2-4.8-9-16.1-1.5-22.2c11.8-9.5,24.9-16.7,39.1-22c14.6-5.4,29.7-8.6,45.2-9.4c0-4.1,0-8.3,0-12.4
	c0-2.5-0.1-5.1,0.1-7.6c0.2-4.7,3.6-8.4,8.3-9.1c2.4-0.4,4.9-0.5,7.2-1.1c8.8-2.6,14.1-11.3,12.7-20.7c-1.3-8.8-9.2-15.5-18.1-15.5
	c-9.1,0-16.9,6.6-18.3,15.6c-0.2,1.2-0.3,2.3-0.4,3.5c-0.4,5.6-4.7,9.5-10.2,9.5c-5.5-0.1-9.6-4.2-9.8-9.8
	c-0.7-19.2,15.2-37,34.5-38.6c21-1.8,38.3,11.2,42.2,31.8c3.5,18.1-7.3,36.7-25.2,43c-2.2,0.8-3.1,1.6-2.9,4.1
	c0.2,2.5,0.2,5,0.1,7.5c5,0.4,10,0.8,14.9,1.5c25.7,4,49.1,13.6,69.5,29.9c2.7,2.1,4.1,5,5,8.1V560.2z"/>
</svg>
